<svg width="352" height="296" viewBox="0 0 352 296" fill="none" xmlns="http://www.w3.org/2000/svg">
<g opacity="0.44" clip-path="url(#clip0_407_68)">
<rect width="352" height="352" transform="translate(0 -56.5)" fill="white"/>
<rect y="-56.5" width="352" height="352" fill="black"/>
<g opacity="0.7">
<mask id="mask0_407_68" style="mask-type:alpha" maskUnits="userSpaceOnUse" x="0" y="-57" width="352" height="353">
<rect y="-56.5" width="352" height="352" fill="url(#paint0_radial_407_68)"/>
</mask>
<g mask="url(#mask0_407_68)">
<path d="M0.625 -13.4043V8.15137L-18.7031 18.9395L-38.0303 8.15137V-13.4043L-18.7031 -24.1924L0.625 -13.4043Z" stroke="white" stroke-width="0.586667"/>
<path d="M39.5078 -13.4043V8.15137L20.1797 18.9395L0.852539 8.15137V-13.4043L20.1797 -24.1924L39.5078 -13.4043Z" stroke="white" stroke-width="0.586667"/>
<path d="M78.3906 -13.4043V8.15137L59.0625 18.9395L39.7354 8.15137V-13.4043L59.0625 -24.1924L78.3906 -13.4043Z" stroke="white" stroke-width="0.586667"/>
<path d="M117.273 -13.4043V8.15137L97.9453 18.9395L78.6182 8.15137V-13.4043L97.9453 -24.1924L117.273 -13.4043Z" stroke="white" stroke-width="0.586667"/>
<path d="M156.156 -13.4043V8.15137L136.828 18.9395L117.501 8.15137V-13.4043L136.828 -24.1924L156.156 -13.4043Z" stroke="white" stroke-width="0.586667"/>
<path d="M195.039 -13.4043V8.15137L175.711 18.9395L156.384 8.15137V-13.4043L175.711 -24.1924L195.039 -13.4043Z" stroke="white" stroke-width="0.586667"/>
<path d="M233.926 -13.4043V8.15137L214.598 18.9395L195.271 8.15137V-13.4043L214.598 -24.1924L233.926 -13.4043Z" stroke="white" stroke-width="0.586667"/>
<path d="M272.809 -13.4043V8.15137L253.48 18.9395L234.153 8.15137V-13.4043L253.48 -24.1924L272.809 -13.4043Z" stroke="white" stroke-width="0.586667"/>
<path d="M311.691 -13.4043V8.15137L292.363 18.9395L273.036 8.15137V-13.4043L292.363 -24.1924L311.691 -13.4043Z" stroke="white" stroke-width="0.586667"/>
<path d="M350.574 -13.4043V8.15137L331.246 18.9395L311.919 8.15137V-13.4043L331.246 -24.1924L350.574 -13.4043Z" stroke="white" stroke-width="0.586667"/>
<path d="M19.8555 18.5693V40.125L0.527344 50.9131L-18.7998 40.125V18.5693L0.527344 7.78125L19.8555 18.5693Z" stroke="white" stroke-width="0.586667"/>
<path d="M58.7383 18.5693V40.125L39.4102 50.9131L20.083 40.125V18.5693L39.4102 7.78125L58.7383 18.5693Z" stroke="white" stroke-width="0.586667"/>
<path d="M97.6211 18.5693V40.125L78.293 50.9131L58.9658 40.125V18.5693L78.293 7.78125L97.6211 18.5693Z" stroke="white" stroke-width="0.586667"/>
<path d="M136.508 18.5693V40.125L117.18 50.9131L97.8525 40.125V18.5693L117.18 7.78125L136.508 18.5693Z" stroke="white" stroke-width="0.586667"/>
<path d="M175.391 18.5693V40.125L156.062 50.9131L136.735 40.125V18.5693L156.062 7.78125L175.391 18.5693Z" stroke="white" stroke-width="0.586667"/>
<path d="M214.27 18.5693V40.125L194.941 50.9131L175.614 40.125V18.5693L194.941 7.78125L214.27 18.5693Z" stroke="white" stroke-width="0.586667"/>
<path d="M253.152 18.5692V40.1248L233.824 50.9129L214.497 40.1248V18.5692L233.824 7.78108L253.152 18.5692Z" stroke="white" stroke-width="0.586667"/>
<path d="M292.035 18.5693V40.125L272.707 50.9131L253.38 40.125V18.5693L272.707 7.78125L292.035 18.5693Z" stroke="white" stroke-width="0.586667"/>
<path d="M330.926 18.5693V40.125L311.598 50.9131L292.271 40.125V18.5693L311.598 7.78125L330.926 18.5693Z" stroke="white" stroke-width="0.586667"/>
<path d="M0.199219 50.543V72.0986L-19.1289 82.8867L-38.4561 72.0986V50.543L-19.1289 39.7549L0.199219 50.543Z" stroke="white" stroke-width="0.586667"/>
<path d="M39.0859 50.543V72.0986L19.7578 82.8867L0.430664 72.0986V50.543L19.7578 39.7549L39.0859 50.543Z" stroke="white" stroke-width="0.586667"/>
<path d="M77.9727 50.543V72.0986L58.6445 82.8867L39.3174 72.0986V50.543L58.6445 39.7549L77.9727 50.543Z" stroke="white" stroke-width="0.586667"/>
<path d="M116.852 50.543V72.0986L97.5234 82.8867L78.1963 72.0986V50.543L97.5234 39.7549L116.852 50.543Z" stroke="white" stroke-width="0.586667"/>
<path d="M155.734 50.543V72.0986L136.406 82.8867L117.079 72.0986V50.543L136.406 39.7549L155.734 50.543Z" stroke="white" stroke-width="0.586667"/>
<path d="M194.617 50.543V72.0986L175.289 82.8867L155.962 72.0986V50.543L175.289 39.7549L194.617 50.543Z" stroke="white" stroke-width="0.586667"/>
<path d="M233.5 50.543V72.0986L214.172 82.8867L194.845 72.0986V50.543L214.172 39.7549L233.5 50.543Z" stroke="white" stroke-width="0.586667"/>
<path d="M272.383 50.543V72.0986L253.055 82.8867L233.728 72.0986V50.543L253.055 39.7549L272.383 50.543Z" stroke="white" stroke-width="0.586667"/>
<path d="M311.266 50.543V72.0986L291.938 82.8867L272.61 72.0986V50.543L291.938 39.7549L311.266 50.543Z" stroke="white" stroke-width="0.586667"/>
<path d="M349.984 50.543V72.0986L330.656 82.8867L311.329 72.0986V50.543L330.656 39.7549L349.984 50.543Z" stroke="white" stroke-width="0.586667"/>
<path d="M19.4297 82.5166V104.072L0.101562 114.86L-19.2256 104.072V82.5166L0.101562 71.7285L19.4297 82.5166Z" stroke="white" stroke-width="0.586667"/>
<path d="M58.3163 82.5164V104.072L38.9882 114.86L19.661 104.072V82.5164L38.9882 71.7283L58.3163 82.5164Z" stroke="white" stroke-width="0.586667"/>
<path d="M97.1992 82.5166V104.072L77.8711 114.86L58.5439 104.072V82.5166L77.8711 71.7285L97.1992 82.5166Z" stroke="white" stroke-width="0.586667"/>
<path d="M136.082 82.5166V104.072L116.754 114.86L97.4268 104.072V82.5166L116.754 71.7285L136.082 82.5166Z" stroke="white" stroke-width="0.586667"/>
<path d="M174.961 82.5166V104.072L155.633 114.86L136.306 104.072V82.5166L155.633 71.7285L174.961 82.5166Z" stroke="white" stroke-width="0.586667"/>
<path d="M213.848 82.5166V104.072L194.52 114.86L175.192 104.072V82.5166L194.52 71.7285L213.848 82.5166Z" stroke="white" stroke-width="0.586667"/>
<path d="M252.73 82.5166V104.072L233.402 114.86L214.075 104.072V82.5166L233.402 71.7285L252.73 82.5166Z" stroke="white" stroke-width="0.586667"/>
<path d="M291.613 82.5166V104.072L272.285 114.86L252.958 104.072V82.5166L272.285 71.7285L291.613 82.5166Z" stroke="white" stroke-width="0.586667"/>
<path d="M-0.222534 114.489V136.045L-19.5507 146.833L-38.8778 136.045V114.489L-19.5507 103.701L-0.222534 114.489Z" stroke="white" stroke-width="0.586667"/>
<path d="M38.6602 114.489V136.045L19.332 146.833L0.00488281 136.045V114.489L19.332 103.701L38.6602 114.489Z" stroke="white" stroke-width="0.586667"/>
<path d="M77.5391 114.489V136.045L58.2109 146.833L38.8838 136.045V114.489L58.2109 103.701L77.5391 114.489Z" stroke="white" stroke-width="0.586667"/>
<path d="M116.43 114.489V136.045L97.1016 146.833L77.7744 136.045V114.489L97.1016 103.701L116.43 114.489Z" stroke="white" stroke-width="0.586667"/>
<path d="M155.312 114.489V136.045L135.984 146.833L116.657 136.045V114.489L135.984 103.701L155.312 114.489Z" stroke="white" stroke-width="0.586667"/>
<path d="M194.195 114.489V136.045L174.867 146.833L155.54 136.045V114.489L174.867 103.701L194.195 114.489Z" stroke="white" stroke-width="0.586667"/>
<path d="M233.078 114.489V136.045L213.75 146.833L194.423 136.045V114.489L213.75 103.701L233.078 114.489Z" stroke="white" stroke-width="0.586667"/>
<path d="M271.961 114.489V136.045L252.633 146.833L233.306 136.045V114.489L252.633 103.701L271.961 114.489Z" stroke="white" stroke-width="0.586667"/>
<path d="M19.0078 146.463V168.019L-0.320312 178.807L-19.6475 168.019V146.463L-0.320312 135.675L19.0078 146.463Z" stroke="white" stroke-width="0.586667"/>
<path d="M57.8906 146.463V168.019L38.5625 178.807L19.2354 168.019V146.463L38.5625 135.675L57.8906 146.463Z" stroke="white" stroke-width="0.586667"/>
<path d="M96.7734 146.463V168.019L77.4453 178.807L58.1182 168.019V146.463L77.4453 135.675L96.7734 146.463Z" stroke="white" stroke-width="0.586667"/>
<path d="M135.66 146.463V168.019L116.332 178.807L97.0049 168.019V146.463L116.332 135.675L135.66 146.463Z" stroke="white" stroke-width="0.586667"/>
<path d="M174.543 146.463V168.019L155.215 178.807L135.888 168.019V146.463L155.215 135.675L174.543 146.463Z" stroke="white" stroke-width="0.586667"/>
<path d="M213.426 146.463V168.019L194.098 178.807L174.771 168.019V146.463L194.098 135.675L213.426 146.463Z" stroke="white" stroke-width="0.586667"/>
<path d="M252.309 146.463V168.019L232.98 178.807L213.653 168.019V146.463L232.98 135.675L252.309 146.463Z" stroke="white" stroke-width="0.586667"/>
<path d="M38.2383 178.436V199.991L18.9102 210.779L-0.416992 199.991V178.436L18.9102 167.647L38.2383 178.436Z" stroke="white" stroke-width="0.586667"/>
<path d="M77.1211 178.436V199.991L57.793 210.779L38.4658 199.991V178.436L57.793 167.647L77.1211 178.436Z" stroke="white" stroke-width="0.586667"/>
<path d="M116 178.436V199.991L96.6719 210.779L77.3447 199.991V178.436L96.6719 167.647L116 178.436Z" stroke="white" stroke-width="0.586667"/>
<path d="M154.887 178.436V199.991L135.559 210.779L116.231 199.991V178.436L135.559 167.647L154.887 178.436Z" stroke="white" stroke-width="0.586667"/>
<path d="M193.773 178.436V199.991L174.445 210.779L155.118 199.991V178.436L174.445 167.647L193.773 178.436Z" stroke="white" stroke-width="0.586667"/>
<path d="M232.656 178.436V199.991L213.328 210.779L194.001 199.991V178.436L213.328 167.647L232.656 178.436Z" stroke="white" stroke-width="0.586667"/>
<path d="M18.582 210.41V231.966L-0.746094 242.754L-20.0732 231.966V210.41L-0.746094 199.622L18.582 210.41Z" stroke="white" stroke-width="0.586667"/>
<path d="M57.4688 210.41V231.966L38.1406 242.754L18.8135 231.966V210.41L38.1406 199.622L57.4688 210.41Z" stroke="white" stroke-width="0.586667"/>
<path d="M96.3516 210.41V231.966L77.0234 242.754L57.6963 231.966V210.41L77.0234 199.622L96.3516 210.41Z" stroke="white" stroke-width="0.586667"/>
<path d="M135.234 210.41V231.966L115.906 242.754L96.5791 231.966V210.41L115.906 199.622L135.234 210.41Z" stroke="white" stroke-width="0.586667"/>
<path d="M174.113 210.41V231.966L154.785 242.754L135.458 231.966V210.41L154.785 199.622L174.113 210.41Z" stroke="white" stroke-width="0.586667"/>
<path d="M213 210.41V231.966L193.672 242.754L174.345 231.966V210.41L193.672 199.622L213 210.41Z" stroke="white" stroke-width="0.586667"/>
<path d="M252.012 210.41V231.966L232.684 242.754L213.356 231.966V210.41L232.684 199.622L252.012 210.41Z" stroke="white" stroke-width="0.586667"/>
<path d="M290.895 210.41V231.966L271.566 242.754L252.239 231.966V210.41L271.566 199.622L290.895 210.41Z" stroke="white" stroke-width="0.586667"/>
<path d="M329.777 210.41V231.966L310.449 242.754L291.122 231.966V210.41L310.449 199.622L329.777 210.41Z" stroke="white" stroke-width="0.586667"/>
<path d="M368.66 210.41V231.966L349.332 242.754L330.005 231.966V210.41L349.332 199.622L368.66 210.41Z" stroke="white" stroke-width="0.586667"/>
<path d="M37.8163 242.383V263.938L18.4882 274.727L-0.838989 263.938V242.383L18.4882 231.595L37.8163 242.383Z" stroke="white" stroke-width="0.586667"/>
<path d="M76.6953 242.383V263.938L57.3672 274.727L38.04 263.938V242.383L57.3672 231.595L76.6953 242.383Z" stroke="white" stroke-width="0.586667"/>
<path d="M115.578 242.383V263.938L96.25 274.727L76.9229 263.938V242.383L96.25 231.595L115.578 242.383Z" stroke="white" stroke-width="0.586667"/>
<path d="M154.461 242.383V263.938L135.133 274.727L115.806 263.938V242.383L135.133 231.595L154.461 242.383Z" stroke="white" stroke-width="0.586667"/>
<path d="M193.348 242.383V263.938L174.02 274.727L154.692 263.938V242.383L174.02 231.595L193.348 242.383Z" stroke="white" stroke-width="0.586667"/>
<path d="M18.1602 274.356V295.912L-1.16797 306.7L-20.4951 295.912V274.356L-1.16797 263.568L18.1602 274.356Z" stroke="white" stroke-width="0.586667"/>
<path d="M57.043 274.356V295.912L37.7148 306.7L18.3877 295.912V274.356L37.7148 263.568L57.043 274.356Z" stroke="white" stroke-width="0.586667"/>
<path d="M95.9297 274.356V295.912L76.6016 306.7L57.2744 295.912V274.356L76.6016 263.568L95.9297 274.356Z" stroke="white" stroke-width="0.586667"/>
<path d="M134.812 274.356V295.912L115.484 306.7L96.1572 295.912V274.356L115.484 263.568L134.812 274.356Z" stroke="white" stroke-width="0.586667"/>
<path d="M173.695 274.356V295.912L154.367 306.7L135.04 295.912V274.356L154.367 263.568L173.695 274.356Z" stroke="white" stroke-width="0.586667"/>
<path d="M212.703 274.65V296.206L193.375 306.994L174.048 296.206V274.65L193.375 263.862L212.703 274.65Z" stroke="white" stroke-width="0.586667"/>
<path d="M251.586 274.65V296.206L232.258 306.994L212.931 296.206V274.65L232.258 263.862L251.586 274.65Z" stroke="white" stroke-width="0.586667"/>
<path d="M290.473 274.65V296.206L271.145 306.994L251.817 296.206V274.65L271.145 263.862L290.473 274.65Z" stroke="white" stroke-width="0.586667"/>
<path d="M329.355 274.65V296.206L310.027 306.994L290.7 296.206V274.65L310.027 263.862L329.355 274.65Z" stroke="white" stroke-width="0.586667"/>
<path d="M368.238 274.65V296.206L348.91 306.994L329.583 296.206V274.65L348.91 263.862L368.238 274.65Z" stroke="white" stroke-width="0.586667"/>
<path d="M369.803 18.6201V39.6855L350.536 50.2324L331.269 39.6855V18.6201L350.536 8.07324L369.803 18.6201Z" stroke="white" stroke-width="0.586667"/>
<path d="M388.703 50.543V72.0986L369.375 82.8867L350.048 72.0986V50.543L369.375 39.7549L388.703 50.543Z" stroke="white" stroke-width="0.586667"/>
<path d="M330.625 82.5166V104.072L311.297 114.86L291.97 104.072V82.5166L311.297 71.7285L330.625 82.5166Z" stroke="white" stroke-width="0.586667"/>
<path d="M369.508 82.5166V104.072L350.18 114.86L330.853 104.072V82.5166L350.18 71.7285L369.508 82.5166Z" stroke="white" stroke-width="0.586667"/>
<path d="M310.969 114.783V136.339L291.641 147.127L272.313 136.339V114.783L291.641 103.995L310.969 114.783Z" stroke="white" stroke-width="0.586667"/>
<path d="M349.855 114.783V136.339L330.527 147.127L311.2 136.339V114.783L330.527 103.995L349.855 114.783Z" stroke="white" stroke-width="0.586667"/>
<path d="M388.738 114.783V136.339L369.41 147.127L350.083 136.339V114.783L369.41 103.995L388.738 114.783Z" stroke="white" stroke-width="0.586667"/>
<path d="M291.316 147.05V168.605L271.988 179.394L252.661 168.605V147.05L271.988 136.262L291.316 147.05Z" stroke="white" stroke-width="0.586667"/>
<path d="M330.199 147.05V168.605L310.871 179.394L291.544 168.605V147.05L310.871 136.262L330.199 147.05Z" stroke="white" stroke-width="0.586667"/>
<path d="M369.086 147.05V168.605L349.758 179.394L330.431 168.605V147.05L349.758 136.262L369.086 147.05Z" stroke="white" stroke-width="0.586667"/>
<path d="M271.664 178.729V200.285L252.336 211.073L233.009 200.285V178.729L252.336 167.941L271.664 178.729Z" stroke="white" stroke-width="0.586667"/>
<path d="M310.543 178.729V200.285L291.215 211.073L271.888 200.285V178.729L291.215 167.941L310.543 178.729Z" stroke="white" stroke-width="0.586667"/>
<path d="M349.43 178.729V200.285L330.102 211.073L310.774 200.285V178.729L330.102 167.941L349.43 178.729Z" stroke="white" stroke-width="0.586667"/>
<path d="M388.316 178.73V200.285L368.988 211.073L349.661 200.285V178.73L368.988 167.942L388.316 178.73Z" stroke="white" stroke-width="0.586667"/>
<path d="M232.066 242.677V264.233L212.738 275.021L193.411 264.233V242.677L212.738 231.889L232.066 242.677Z" stroke="white" stroke-width="0.586667"/>
<path d="M270.945 242.677V264.232L251.617 275.021L232.29 264.232V242.677L251.617 231.889L270.945 242.677Z" stroke="white" stroke-width="0.586667"/>
<path d="M309.828 242.677V264.232L290.5 275.021L271.173 264.232V242.677L290.5 231.889L309.828 242.677Z" stroke="white" stroke-width="0.586667"/>
<path d="M348.711 242.677V264.232L329.383 275.021L310.056 264.232V242.677L329.383 231.889L348.711 242.677Z" stroke="white" stroke-width="0.586667"/>
<path d="M387.598 242.677V264.232L368.27 275.021L348.942 264.232V242.677L368.27 231.889L387.598 242.677Z" stroke="white" stroke-width="0.586667"/>
</g>
</g>
</g>
<defs>
<radialGradient id="paint0_radial_407_68" cx="0" cy="0" r="1" gradientUnits="userSpaceOnUse" gradientTransform="translate(176 119.5) rotate(90) scale(196.827)">
<stop/>
<stop offset="1" stop-opacity="0"/>
</radialGradient>
<clipPath id="clip0_407_68">
<rect width="352" height="352" fill="white" transform="translate(0 -56.5)"/>
</clipPath>
</defs>
</svg>
